<?xml version="1.0" encoding="UTF-8"?>
<!-- Generator: visioncortex VTracer 0.6.4 -->
<svg version="1.1" xmlns="http://www.w3.org/2000/svg" width="1024" height="1024">
<path d="M0 0 C4.17463866 0.00859174 8.34924821 -0.00040849 12.52388534 -0.00706416 C19.82453247 -0.01631903 27.12511059 -0.01453618 34.42575684 -0.00533163 C45.28211902 0.0083181 56.1384286 0.00468641 66.99479467 -0.00229023 C86.38701953 -0.01419516 105.77921179 -0.00914795 125.17143484 0.00298804 C142.13901632 0.01353412 159.10658672 0.01806227 176.07417145 0.01669253 C177.20070628 0.0166085 178.32724111 0.01652447 179.48791335 0.01643789 C184.06110305 0.01608563 188.63429275 0.01570162 193.20748244 0.01527231 C236.08104815 0.01130985 278.95459425 0.02401364 321.82815435 0.04479888 C359.90887117 0.06317373 397.98956922 0.06897932 436.07029 0.06352747 C438.51624354 0.06318104 440.96219708 0.06283494 443.40815062 0.06248918 C444.61739213 0.06231819 445.82663364 0.06214719 447.07251884 0.06197102 C453.15984104 0.06111746 459.24716324 0.06029367 465.33448544 0.05950201 C466.53545595 0.05934493 467.73642645 0.05918785 468.97379001 0.05902601 C500.80984316 0.05503557 532.6458945 0.06051192 564.48194656 0.06901331 C567.90761036 0.06992033 571.33327417 0.07082598 574.75893798 0.07172854 C577.03135527 0.07232965 579.30377255 0.07293827 581.57618984 0.07355445 C597.41217626 0.07777428 613.24815912 0.07835473 629.08414592 0.07644895 C649.48891166 0.07400554 669.89365835 0.07808176 690.29841889 0.09365895 C701.08679193 0.10170526 711.87513328 0.1043136 722.66350822 0.0990166 C729.87193535 0.09603718 737.08033449 0.10034923 744.28875493 0.11056517 C748.39407717 0.11618486 752.49933483 0.11870746 756.60465754 0.1123986 C760.34592495 0.1067186 764.08706745 0.1103749 767.82832246 0.12119737 C769.79384614 0.12456025 771.7593793 0.11823234 773.72489399 0.11140303 C804.93487364 0.24888406 832.28914927 11.50787019 854.53830758 33.1917013 C878.00990473 56.96807491 885.47012606 87.90716073 885.41694203 120.37747897 C885.41829147 121.75888774 885.42007693 123.14029613 885.42225426 124.52170385 C885.42695495 128.30142123 885.42549217 132.08111433 885.42297649 135.86083286 C885.42133657 139.97923139 885.42548992 144.09762488 885.42888567 148.21602178 C885.43403005 155.42889125 885.43545854 162.641754 885.43442956 169.85462511 C885.43290311 180.58080839 885.43706974 191.30698426 885.44230418 202.0331661 C885.45197126 222.30624881 885.45478818 242.57932899 885.45536124 262.85241374 C885.45582092 278.50939304 885.45787997 294.16637134 885.46106186 309.82335032 C885.46195942 314.33147558 885.46284923 318.83960085 885.46373674 323.34772612 C885.46395779 324.46848468 885.46417884 325.58924325 885.46440658 326.74396421 C885.47056014 358.26566223 885.47450721 389.78735991 885.47406331 421.30905856 C885.47404773 422.49731494 885.47403215 423.68557133 885.4740161 424.90983548 C885.47393299 430.93230441 885.47383395 436.95477333 885.47373139 442.97724225 C885.47370147 444.77134246 885.47370147 444.77134246 885.47367095 446.60168711 C885.47363051 449.02042534 885.47358872 451.43916357 885.47354556 453.8579018 C885.47293283 491.48772685 885.48043913 529.11754289 885.49411812 566.74736536 C885.50948301 609.03228573 885.5180841 651.31720017 885.5171549 693.60212351 C885.51708027 698.1121349 885.51703156 702.6221463 885.51700058 707.13215769 C885.5169831 708.79785447 885.5169831 708.79785447 885.51696527 710.49720169 C885.51693451 728.35694479 885.52331668 746.21668006 885.53193285 764.07642083 C885.54041505 782.02995634 885.54139483 799.9834804 885.53482353 817.93701681 C885.53113171 828.59787408 885.53294925 839.25869655 885.54276587 849.91955012 C885.54877454 857.04832776 885.54746053 864.17708025 885.54029537 871.30585673 C885.53642138 875.3625336 885.53561642 879.41914324 885.54375272 883.47581532 C885.61820563 923.26885118 880.95058383 956.96729628 852.28830758 986.3792013 C851.71854195 987.02244349 851.14877633 987.66568568 850.56174508 988.32842005 C833.89334327 1006.66366204 805.8360114 1016.2995703 781.80719858 1017.56210803 C778.15030567 1017.63451315 774.49849273 1017.64633442 770.84090844 1017.63367689 C769.43499689 1017.636073 768.02908662 1017.63934218 766.62317887 1017.6433935 C762.78473142 1017.65195127 758.94638272 1017.64821318 755.10793394 1017.64233777 C750.92241617 1017.63814616 746.73691572 1017.64558144 742.55140224 1017.65149028 C735.22379097 1017.66023454 727.89620765 1017.66157071 720.56859246 1017.65798701 C709.67182452 1017.65267185 698.77508356 1017.65878349 687.87831855 1017.66706994 C667.28286591 1017.68230151 646.68742557 1017.68401587 626.09196848 1017.68154691 C610.1866568 1017.67971346 594.28134915 1017.68147496 578.37603798 1017.68577135 C576.09002624 1017.68637376 573.8040145 1017.68697496 571.51800276 1017.68757496 C568.07309651 1017.68848222 564.62819025 1017.68939089 561.183284 1017.69030731 C529.15859547 1017.69873562 497.13390846 1017.70307338 465.10921898 1017.69890059 C463.90221745 1017.69874421 462.69521591 1017.69858784 461.45163857 1017.69842672 C455.33423615 1017.69762095 449.21683374 1017.69677518 443.09943133 1017.69591342 C441.884521 1017.69574233 440.66961066 1017.69557124 439.41788486 1017.69539497 C436.9610418 1017.69504832 434.50419874 1017.69469979 432.04735568 1017.69434939 C393.81972115 1017.6889923 355.59210968 1017.69692274 317.36447945 1017.71538294 C274.40347434 1017.73610466 231.44248351 1017.74682533 188.48147312 1017.74280746 C183.89959549 1017.74241212 179.31771786 1017.74205057 174.73584023 1017.74171008 C173.60768776 1017.74161934 172.47953528 1017.74152861 171.31719637 1017.74143513 C154.29605817 1017.74026978 137.27493442 1017.74691274 120.25379982 1017.757522 C100.89294224 1017.76957738 81.53211645 1017.77112902 62.17125839 1017.75873183 C51.34152067 1017.75210741 40.51185899 1017.7537247 29.68212738 1017.76732034 C22.44084765 1017.77557641 15.19962477 1017.77285225 7.95834965 1017.76134508 C3.8374304 1017.75510017 -0.2833407 1017.75345791 -4.40425128 1017.76520841 C-42.64475822 1017.86660163 -73.60192928 1011.51068844 -101.96169242 984.5667013 C-122.19337226 963.44098651 -132.065258 936.08096615 -131.96616802 907.0629896 C-131.9685626 905.64686582 -131.97183082 904.23074331 -131.97588462 902.8146233 C-131.98446341 898.93851113 -131.98069541 895.06249643 -131.97482889 891.18638288 C-131.97064498 886.96354173 -131.97806824 882.74071793 -131.9839814 878.51788104 C-131.99273388 871.12169701 -131.9940589 863.72554067 -131.99047813 856.32935274 C-131.98516734 845.33069321 -131.99127023 834.33206045 -131.99956106 823.33340382 C-132.01479987 802.54613142 -132.01650624 781.75887119 -132.01403803 760.97159437 C-132.0122052 744.91890645 -132.01396479 728.86622252 -132.01826248 712.8135351 C-132.01886488 710.5070426 -132.01946608 708.2005501 -132.02006608 705.8940576 C-132.02097334 702.41836386 -132.021882 698.94267012 -132.02279843 695.46697639 C-132.03122785 663.15221445 -132.03556374 630.83745402 -132.03139171 598.52269114 C-132.03123533 597.30452711 -132.03107896 596.08636308 -132.03091784 594.831285 C-132.03011206 588.65718916 -132.02926629 582.48309332 -132.02840454 576.30899749 C-132.02823345 575.0828095 -132.02806237 573.85662151 -132.02788609 572.59327631 C-132.02753944 570.11362642 -132.02719091 567.63397653 -132.02684051 565.15432664 C-132.02148334 526.57123546 -132.02941364 487.98816713 -132.04787406 449.40508021 C-132.06859199 406.0529709 -132.07931717 362.70087575 -132.07529858 319.34876121 C-132.07490323 314.72588433 -132.07454169 310.10300745 -132.0742012 305.48013056 C-132.07411047 304.34186819 -132.07401973 303.20360581 -132.07392625 302.03085064 C-132.07276049 284.85080628 -132.07940702 267.67077621 -132.09001312 250.49073542 C-132.10206381 230.95080901 -132.10362557 211.41091409 -132.09122295 191.87098722 C-132.08459431 180.93863736 -132.08622557 170.00636281 -132.09981146 159.07401898 C-132.10805924 151.76682275 -132.10535412 144.45968289 -132.0938362 137.15249123 C-132.08758308 132.99224816 -132.08597042 128.83215197 -132.09769953 124.67191742 C-132.10829607 120.87836669 -132.10479147 117.08508624 -132.090595 113.29154965 C-132.08663017 111.30292095 -132.09719963 109.31427891 -132.10857207 107.32567877 C-131.93440435 78.14416212 -119.68912422 52.01671272 -99.77419242 31.0667013 C-71.27699182 4.00875326 -37.6652365 -0.10792304 0 0 Z " fill="#15002A" transform="translate(132.71169242355973,4.620798698626459)"/>
<path d="M0 0 C0.774646 0.31300049 0.774646 0.31300049 1.56494141 0.63232422 C12.95504467 5.22679466 24.3659046 9.7631104 35.8125 14.21484375 C151.33073113 59.15059178 151.33073113 59.15059178 187 93 C187.98613281 93.87205078 187.98613281 93.87205078 188.9921875 94.76171875 C205.18811786 109.57689007 213.10621085 134.01895089 214.109375 155.32275391 C215.00617275 183.76805746 209.19604808 211.39913897 189.25048828 232.72387695 C174.78387985 247.7220218 153.12723039 260.93320572 132 263 C132.40992188 262.35933594 132.81984375 261.71867187 133.2421875 261.05859375 C140.20855883 249.8757345 141.70511444 239.34116298 139.125 226.3125 C134.82602038 211.23607844 125.05940269 197.52902492 116.61816406 184.50390625 C114.35346754 180.99957198 112.11829817 177.47674225 109.88183594 173.9543457 C108.11377505 171.16982179 106.34252278 168.38735335 104.5703125 165.60546875 C101.04520378 160.07137535 97.52239291 154.53582225 94 149 C92.83334387 147.16665996 91.6666772 145.33332663 90.5 143.5 C83.5 132.5 83.5 132.5 81.74780273 129.74633789 C80.58871336 127.92505051 79.42937357 126.10392246 78.26977539 124.28295898 C75.23503426 119.51664284 72.20553804 114.74709784 69.18359375 109.97265625 C68.55646484 108.98330078 67.92933594 107.99394531 67.28320312 106.97460938 C66.088872 105.09022026 64.89606143 103.20486619 63.70507812 101.31835938 C60.60691103 96.43406036 57.41238974 91.67058931 54 87 C46.47251917 96.53583111 39.09827865 106.14704651 32.03833008 116.03466797 C27.80306805 121.94353647 23.42550133 127.73259282 19 133.5 C13.49978692 140.67163515 8.11767929 147.90887728 2.86547852 155.26391602 C-0.5562183 160.04290172 -4.07000235 164.73941315 -7.63720703 169.41064453 C-13.2855475 176.8238228 -18.69077503 184.31701496 -23.6875 192.1875 C-24.16840088 192.94087646 -24.64930176 193.69425293 -25.14477539 194.47045898 C-35.19851224 210.63293181 -38.12157912 227.27052529 -35 246 C-64.01939797 228.63233 -81.02870751 196.69127307 -90 165 C-90 164.34 -90 163.68 -90 163 C-91.65 163 -93.3 163 -95 163 C-91.00668533 157.59496171 -86.88460864 152.32213015 -82.625 147.125 C-81.47106683 145.71117197 -80.31741979 144.29711035 -79.1640625 142.8828125 C-78.61524414 142.21024414 -78.06642578 141.53767578 -77.50097656 140.84472656 C-75.65346403 138.5741012 -73.82392298 136.28960545 -72 134 C-69.14784598 130.42129727 -66.2665989 126.86756697 -63.37524414 123.32055664 C-58.71844367 117.60750517 -54.09372526 111.87576732 -49.5625 106.0625 C-44.87991357 100.05790325 -40.05012331 94.18340114 -35.19384766 88.31884766 C-31.5465898 83.90479701 -27.95875211 79.45262261 -24.4375 74.9375 C-18.40342354 67.20031045 -12.20355748 59.60151693 -6 52 C-2.62772331 47.86553549 0.74183752 43.72912429 4.09375 39.578125 C5.83956212 37.41739909 7.6056281 35.28819036 9.40625 33.171875 C10.38078125 32.00398437 10.38078125 32.00398437 11.375 30.8125 C11.91898437 30.17957031 12.46296875 29.54664063 13.0234375 28.89453125 C14.16790633 27.02827698 14.16790633 27.02827698 14.00390625 24.79296875 C12.49961881 20.60788891 10.0523213 17.163549 7.5625 13.5 C1.4896417 4.49568513 1.4896417 4.49568513 0 0 Z " fill="#FCFEFE" transform="translate(424,517)"/>
<path d="M0 0 C-0.86625 0.515625 -1.7325 1.03125 -2.625 1.5625 C-8.85830166 5.73277038 -13.83232144 12.00036222 -15.5546875 19.375 C-20.02424341 45.7218559 -0.60536272 70.14670053 12.91943359 90.81054688 C16.31586581 96.01718739 19.65540093 101.2599776 23 106.5 C24.33305147 108.5835137 25.66638505 110.66684692 27 112.75 C35 125.25 35 125.25 37.00317383 128.38037109 C38.32542814 130.44612065 39.64817531 132.51155483 40.97143555 134.57666016 C44.10131288 139.46252964 47.22600017 144.35150357 50.33328247 149.25177002 C51.80332737 151.56939722 53.27618521 153.8852303 54.74926758 156.20092773 C55.78937356 157.83858714 56.8253984 159.47883627 57.86132812 161.11914062 C58.49103516 162.10849609 59.12074219 163.09785156 59.76953125 164.1171875 C60.59868042 165.42598877 60.59868042 165.42598877 61.44458008 166.76123047 C62.82869844 168.75343975 64.22070225 170.36225631 66 172 C66.32049316 171.55422607 66.64098633 171.10845215 66.97119141 170.64916992 C76.14465038 157.89815929 85.43421454 145.23655363 94.77050781 132.60449219 C101.61709364 123.3383509 108.44586193 114.06093754 115.16723633 104.70336914 C117.88034201 100.92618696 120.61176736 97.16564459 123.38671875 93.43359375 C139.14879989 72.14670634 149.71430789 52.1833835 149 25 C161.30516543 33.04568509 169.90939828 45.33821122 177 58 C177.98226562 59.70542969 177.98226562 59.70542969 178.984375 61.4453125 C183.04944948 68.65954075 186.40808198 76.06920632 189.5 83.75 C189.850625 84.62019775 190.20125 85.49039551 190.5625 86.38696289 C193 92.60787078 193 92.60787078 193 96 C199.93 96 206.86 96 214 96 C212.09609864 99.80780271 209.8824531 102.88969135 207.25 106.1875 C206.76901855 106.79480957 206.28803711 107.40211914 205.79248047 108.02783203 C200.79442053 114.31078934 195.67885639 120.49695772 190.5625 126.68359375 C183.00785683 135.82314155 175.5483205 145.04108954 168.15625 154.3125 C164.71788725 158.5979956 161.24498273 162.8553727 157.77734375 167.1171875 C154.83677738 170.73319719 151.90555924 174.35573925 149 178 C144.96007614 183.06702315 140.86728624 188.09054617 136.77734375 193.1171875 C133.21701757 197.49531482 129.68012752 201.89090376 126.1640625 206.3046875 C124.397207 208.5052837 122.62013433 210.69630705 120.8359375 212.8828125 C119.98128906 213.93082031 119.98128906 213.93082031 119.109375 215 C117.98834623 216.37351273 116.86603786 217.74598252 115.7421875 219.1171875 C114.14956771 221.06892744 112.57075931 223.03062848 111 225 C110.42362793 225.72018311 109.84725586 226.44036621 109.25341797 227.18237305 C108.70057129 227.89176025 108.14772461 228.60114746 107.578125 229.33203125 C107.07442383 229.97374268 106.57072266 230.6154541 106.05175781 231.27661133 C104.72642273 233.03548974 104.72642273 233.03548974 105.375 235.5625 C106.179375 236.7690625 106.179375 236.7690625 107 238 C107.71379011 239.26777646 108.42189818 240.53876482 109.125 241.8125 C109.74375 242.864375 110.3625 243.91625 111 245 C106.62633002 243.59785286 102.40699129 241.97487042 98.171875 240.19921875 C96.81862705 239.63500221 95.46526913 239.07104936 94.11181641 238.50732422 C93.40228821 238.21114197 92.69276001 237.91495972 91.96173096 237.60980225 C79.96196732 232.60584419 67.91860615 227.76270954 55.75265503 223.17718506 C-61.80797098 178.85356287 -61.80797098 178.85356287 -83.7265625 131.36328125 C-93.34182085 109.37232022 -94.76010709 82.14310701 -86.74609375 59.44921875 C-83.56996364 51.39206035 -79.47902635 44.68198601 -74 38 C-72.98292969 36.73736328 -72.98292969 36.73736328 -71.9453125 35.44921875 C-59.20856508 20.44971584 -21.31306161 -7.10435387 0 0 Z " fill="#FBFDFD" transform="translate(479,248)"/>
<path d="M0 0 C93.72 0 187.44 0 284 0 C284 2.64 284 5.28 284 8 C283.2378418 8.06469482 282.47568359 8.12938965 281.69042969 8.19604492 C238.71508274 11.93568334 196.07150439 20.05259646 157 39 C155.84056885 39.56025879 155.84056885 39.56025879 154.65771484 40.13183594 C121.89318844 56.17022852 95.04047792 79.95577785 79 113 C78.505 114.485 78.505 114.485 78 116 C74.19695071 114.7323169 73.78858718 113.48860297 71.6875 110.125 C62.75906649 96.35486081 52.83458367 83.31969795 42 71 C41.25492187 70.12085938 40.50984375 69.24171875 39.7421875 68.3359375 C28.48376733 55.30199587 16.7742773 47.19356932 0 43 C0 28.81 0 14.62 0 0 Z " fill="#FBFDFD" transform="translate(215,197)"/>
<path d="M0 0 C3.74761265 3.42439198 6.38755436 7.30996835 9.1875 11.5 C17.06021207 23.08338369 25.33761887 33.85518899 35 44 C35.79019531 44.86625 36.58039063 45.7325 37.39453125 46.625 C49.28425853 59.24427937 64.08846698 66.63538679 80 73 C80 87.19 80 101.38 80 116 C-14.05 116 -108.1 116 -205 116 C-205 113.36 -205 110.72 -205 108 C-203.84274414 107.90295776 -203.84274414 107.90295776 -202.66210938 107.80395508 C-144.21265287 102.79412453 -83.84773463 92.59577082 -38 53 C-37.19820312 52.32066406 -36.39640625 51.64132812 -35.5703125 50.94140625 C-19.61176774 37.15902669 -8.09212837 19.34216049 0 0 Z " fill="#FBFDFD" transform="translate(734,717)"/>
<path d="M0 0 C73.92 0 147.84 0 224 0 C224 14.19 224 28.38 224 43 C218.72 44.98 213.44 46.96 208 49 C184.56406989 59.41812456 164.97011684 78.05633954 149.43359375 98.2265625 C148.72396484 99.10441406 148.72396484 99.10441406 148 100 C147.67 100 147.34 100 147 100 C146.67 75.58 146.34 51.16 146 26 C105.78287823 18.45115514 65.80647245 12.11773941 25 9 C22.44779303 8.79449846 19.8957057 8.5875049 17.34375 8.37890625 C11.5633802 7.90765047 5.7822214 7.44794121 0 7 C0 4.69 0 2.38 0 0 Z " fill="#FBFCFD" transform="translate(584,197)"/>
<path d="M0 0 C0.33 19.47 0.66 38.94 1 59 C40.64228549 66.3203084 80.25540044 73.25754667 120.375 77.375 C121.53810196 77.49471664 121.53810196 77.49471664 122.72470093 77.61685181 C133.80182797 78.73947021 144.880147 79.45832651 156 80 C156 82.97 156 85.94 156 89 C81.42 89 6.84 89 -70 89 C-70 74.81 -70 60.62 -70 46 C-63.73 43.69 -57.46 41.38 -51 39 C-32.83445632 29.53559909 -16.97498972 16.47976095 -2.79296875 1.765625 C-1 0 -1 0 0 0 Z " fill="#FBFCFD" transform="translate(275,744)"/>
<path d="M0 0 C0.66 0.33 1.32 0.66 2 1 C-5.26 8.26 -12.52 15.52 -20 23 C-20 19.54574076 -19.65669359 19.25654927 -17.40234375 16.85546875 C-16.84740234 16.26056641 -16.29246094 15.66566406 -15.72070312 15.05273438 C-14.83801758 14.12944336 -14.83801758 14.12944336 -13.9375 13.1875 C-13.37611328 12.58357422 -12.81472656 11.97964844 -12.23632812 11.35742188 C-8.38311741 7.26641301 -4.32001278 3.59359025 0 0 Z " fill="#342246" transform="translate(332,260)"/>
</svg>
